<svg xmlns="http://www.w3.org/2000/svg" width="100" height="100" viewBox="0 0 100 100">
    <g fill="none" fill-rule="evenodd">
        <g fill-rule="nonzero">
            <g>
                <g transform="translate(-774 -479) translate(741 479) translate(33)">
                    <circle cx="50" cy="50" r="50" fill="#641BB4" fill-opacity=".05"/>
                    <g>
                        <path fill="#641BB4" fill-opacity=".16" d="M2.16 8.492L53.04 8.492 53.04 46.707 2.16 46.707z" transform="translate(22 23)"/>
                        <g>
                            <path fill="#FFF" d="M38.114 5.76L38.114 49.44 0.046 49.44 0.046 0 32.354 0z" transform="translate(22 23) translate(8.52)"/>
                            <g fill="#D7BDF4">
                                <path d="M30.508 13.919H.932c-.464 0-.84-.376-.84-.84 0-.464.376-.84.84-.84h29.576c.464 0 .84.376.84.84 0 .464-.376.84-.84.84zM30.508 9.599H.932c-.464 0-.84-.376-.84-.84 0-.464.376-.84.84-.84h29.576c.464 0 .84.376.84.84 0 .464-.376.84-.84.84z" transform="translate(22 23) translate(8.52) translate(3.36 9.72)"/>
                                <path d="M13.56 -12.509L17.88 -12.509 17.88 17.067 13.56 17.067z" transform="translate(22 23) translate(8.52) translate(3.36 9.72) rotate(90 15.72 2.279)"/>
                            </g>
                            <path fill="#B593DA" d="M38.114 5.76L32.354 5.76 32.354 0z" transform="translate(22 23) translate(8.52)"/>
                        </g>
                        <path fill="#D7BDF4" d="M55.2 26.76v25.56c0 1.59-1.29 2.88-2.88 2.88H2.88C1.29 55.2 0 53.91 0 52.32V21.998h12.437l1.723 4.762H55.2z" transform="translate(22 23)"/>
                        <g fill="#FFF">
                            <path d="M.84 5.56c-.464 0-.84-.376-.84-.84V.88C0 .416.376.04.84.04c.464 0 .84.376.84.84v3.84c0 .464-.376.84-.84.84zM42.12 13.68L48.84 13.68 48.84 16.56 42.12 16.56z" transform="translate(22 23) translate(2.04 34.32)"/>
                        </g>
                    </g>
                </g>
            </g>
        </g>
    </g>
</svg>
