<svg xmlns="http://www.w3.org/2000/svg" width="44" height="44" viewBox="0 0 32 32">
    <g fill="none" fill-rule="evenodd">
        <g fill-rule="nonzero">
          <g transform="translate(-1194 -161) translate(493 110) translate(677 43) translate(24 8) translate(4.667 4.333)">
            <circle cx="11.333" cy="11.603" r="10.794" fill="#FFF"/>
            <g fill="#6F00BB">
              <path d="M9.56 4.325H6.375c-.104 0-.188-.084-.188-.188V.94c0-.519-.42-.94-.937-.94-.518 0-.937.421-.937.94v3.197c0 .104-.084.188-.188.188H.937c-.517 0-.937.421-.937.94 0 .52.42.941.937.941h3.187c.104 0 .188.084.188.188v3.197c0 .52.42.94.937.94.518 0 .937-.42.937-.94V6.394c0-.104.084-.188.188-.188H9.56c.517 0 .937-.421.937-.94 0-.52-.42-.94-.937-.94z" transform="translate(5.937 6.206)"/>
            </g>
          </g>
        </g>
      </g>
</svg>
