<svg width="32" height="32" viewBox="0 0 32 32" xmlns="http://www.w3.org/2000/svg">
    <g fill="none" fill-rule="evenodd">
        <circle fill="#FFF" cx="16" cy="16" r="15.5"/>
        <g fill="#6F00BB" fill-rule="nonzero">
            <path d="m17.646 11.337-7.703 7.704a.307.307 0 0 0-.08.14l-.854 3.428a.305.305 0 0 0 .367.367l3.427-.854a.303.303 0 0 0 .141-.08l7.704-7.703-3.002-3.002zM22.556 10.287 21.7 9.43c-.574-.573-1.572-.573-2.145 0l-1.05 1.05 3.002 3.002 1.05-1.05c.286-.287.444-.668.444-1.073 0-.405-.158-.786-.444-1.072z"/>
        </g>
    </g>
</svg>
